<svg width="24" height="24" xmlns="http://www.w3.org/2000/svg" xmlns:xlink="http://www.w3.org/1999/xlink" xml:space="preserve" overflow="hidden"><g transform="translate(-628 -408)"><g><path d="M640 408.297C633.37 408.297 628 413.67 628 420.297 628 425.6 631.438 430.097 636.205 431.682 636.805 431.795 637.025 431.424 637.025 431.105 637.025 430.82 637.015 430.065 637.01 429.065 633.672 429.789 632.968 427.455 632.968 427.455 632.422 426.07 631.633 425.7 631.633 425.7 630.546 424.956 631.717 424.971 631.717 424.971 632.922 425.055 633.555 426.207 633.555 426.207 634.625 428.042 636.364 427.512 637.05 427.205 637.158 426.429 637.467 425.9 637.81 425.6 635.145 425.3 632.344 424.268 632.344 419.67 632.344 418.36 632.809 417.29 633.579 416.45 633.444 416.147 633.039 414.927 633.684 413.274 633.684 413.274 634.689 412.952 636.984 414.504 637.944 414.237 638.964 414.105 639.984 414.099 641.004 414.105 642.024 414.237 642.984 414.504 645.264 412.952 646.269 413.274 646.269 413.274 646.914 414.927 646.509 416.147 646.389 416.45 647.154 417.29 647.619 418.36 647.619 419.67 647.619 424.28 644.814 425.295 642.144 425.59 642.564 425.95 642.954 426.686 642.954 427.81 642.954 429.416 642.939 430.706 642.939 431.096 642.939 431.411 643.149 431.786 643.764 431.666 648.565 430.092 652 425.592 652 420.297 652 413.67 646.627 408.297 640 408.297" fill="#2AAC6D" fill-rule="nonzero" fill-opacity="1"/></g></g></svg>