<svg width="513" height="512" xmlns="http://www.w3.org/2000/svg" xmlns:xlink="http://www.w3.org/1999/xlink" xml:space="preserve" overflow="hidden"><g transform="translate(112 0)"><g><g><g><g><path d="M400.019 118.229 220.435 297.813C178.743 339.401 111.257 339.401 69.5653 297.813L-110.019 118.229C-110.317 121.6-111 124.651-111 128L-111 384C-110.929 442.882-63.2144 490.596-4.33333 490.667L294.333 490.667C353.215 490.596 400.93 442.882 401 384L401 128C401 124.651 400.317 121.6 400.019 118.229Z" fill="#2AAC6D" fill-rule="nonzero" fill-opacity="1"/><path d="M190.269 267.648 385.128 72.768C365.93 40.9355 331.507 21.4349 294.333 21.3333L-4.33333 21.3333C-41.5067 21.4349-75.9301 40.9355-95.128 72.768L99.7307 267.648C124.761 292.578 165.239 292.578 190.269 267.648Z" fill="#2AAC6D" fill-rule="nonzero" fill-opacity="1"/></g></g></g></g></g></svg>