<svg width="24" height="24" xmlns="http://www.w3.org/2000/svg" xmlns:xlink="http://www.w3.org/1999/xlink" xml:space="preserve" overflow="hidden"><g transform="translate(-628 -348)"><g><path d="M640 348C633.372 348 628 353.372 628 360 628 366.628 633.372 372 640 372 646.628 372 652 366.628 652 360 652 353.372 646.628 348 640 348ZM635.369 352.378C635.894 352.378 636.316 352.809 636.316 353.325 636.316 353.841 635.894 354.272 635.369 354.272 634.847 354.27 634.424 353.847 634.422 353.325 634.422 352.8 634.844 352.378 635.369 352.378ZM634.647 355.416 636.091 355.416 636.091 365.457 634.647 365.457 634.647 355.416ZM638.209 355.416 642.109 355.416C645.821 355.416 647.453 358.069 647.453 360.441 647.453 363.019 645.437 365.466 642.128 365.466L638.209 365.466 638.209 355.416ZM639.653 356.719 639.653 364.163 641.95 364.163C645.222 364.163 645.972 361.679 645.972 360.441 645.972 358.425 644.688 356.719 641.875 356.719L639.653 356.719Z" fill="#2AAC6D" fill-rule="nonzero" fill-opacity="1"/></g></g></svg>