<svg width="513" height="514" xmlns="http://www.w3.org/2000/svg" xmlns:xlink="http://www.w3.org/1999/xlink" xml:space="preserve" overflow="hidden"><defs><clipPath id="clip0"><rect x="877" y="63" width="512" height="512"/></clipPath><clipPath id="clip1"><rect x="877" y="63" width="512" height="512"/></clipPath><clipPath id="clip2"><rect x="877" y="63" width="512" height="512"/></clipPath></defs><g transform="translate(-876 -62)"><g><g clip-path="url(#clip0)"><g clip-path="url(#clip1)"><g clip-path="url(#clip2)"><path d="M1367.67 297.667C1355.88 297.667 1346.33 288.116 1346.33 276.333 1346.24 182.116 1269.89 105.761 1175.67 105.667 1163.88 105.667 1154.33 96.1153 1154.33 84.3333 1154.33 72.5513 1163.88 63 1175.67 63 1293.43 63.1293 1388.87 158.566 1389 276.333 1389 288.116 1379.45 297.667 1367.67 297.667ZM1303.67 276.333C1303.67 205.641 1246.36 148.333 1175.67 148.333 1163.88 148.333 1154.33 157.885 1154.33 169.667 1154.33 181.449 1163.88 191 1175.67 191 1222.79 191 1261 229.205 1261 276.333 1261 288.116 1270.55 297.667 1282.33 297.667 1294.12 297.667 1303.67 288.116 1303.67 276.333ZM1350.24 535.832 1369.65 513.453C1395.38 487.644 1395.38 445.886 1369.65 420.077 1368.99 419.416 1317.66 379.928 1317.66 379.928 1292.07 355.57 1251.85 355.625 1226.33 380.056L1185.67 414.317C1118.64 386.573 1065.42 333.263 1037.79 266.179L1071.92 225.645C1096.37 200.127 1096.44 159.894 1072.07 134.296 1072.07 134.296 1032.54 83.032 1031.88 82.3707 1006.55 56.8801 965.454 56.4431 939.592 81.3893L915.059 102.723C770.12 270.872 1082.23 580.568 1255.92 575 1291.36 575.205 1325.37 561.08 1350.24 535.832Z" fill="#2AAC6D" fill-rule="nonzero" fill-opacity="1"/></g></g></g></g></g></svg>