<svg width="512" height="512" xmlns="http://www.w3.org/2000/svg" xmlns:xlink="http://www.w3.org/1999/xlink" xml:space="preserve" overflow="hidden"><g transform="translate(-384 -104)"><g><path d="M552.448 447.552C539.947 435.072 539.947 414.784 552.448 402.304 564.949 389.803 585.195 389.803 597.696 402.304 625.984 430.592 675.349 430.613 703.637 402.304L810.069 295.872C839.275 266.667 839.275 219.136 810.069 189.931 780.864 160.725 733.333 160.725 704.128 189.931 691.627 202.432 671.381 202.432 658.88 189.931 646.379 177.451 646.379 157.163 658.88 144.683 713.024 90.5173 801.173 90.5173 855.317 144.683 909.483 198.848 909.483 286.955 855.317 341.12L748.885 447.552C721.792 474.645 686.229 488.171 650.667 488.171 615.104 488.171 579.52 474.624 552.448 447.552ZM522.923 615.936C558.485 615.936 594.048 602.389 621.141 575.317 633.643 562.837 633.643 542.549 621.141 530.069 608.64 517.568 588.395 517.568 575.893 530.069 546.667 559.296 499.136 559.275 469.952 530.069 440.747 500.864 440.747 453.333 469.952 424.128L575.787 318.293C605.013 289.067 652.544 289.067 681.728 318.293 694.229 330.795 714.475 330.795 726.976 318.293 739.477 305.813 739.477 285.525 726.976 273.045 672.811 218.88 584.704 218.88 530.539 273.045L424.683 378.88C370.517 433.045 370.517 521.152 424.683 575.317 451.776 602.411 487.339 615.936 522.901 615.936Z" fill="#2AAC6D" fill-rule="nonzero" fill-opacity="1"/></g></g></svg>